<svg xmlns="http://www.w3.org/2000/svg" xmlns:xlink="http://www.w3.org/1999/xlink" width="500" zoomAndPan="magnify" viewBox="0 0 375 74.999997" height="100" preserveAspectRatio="xMidYMid meet" version="1.0"><defs><g/></defs><g fill="#ff4a17" fill-opacity="1"><g transform="translate(13.147498, 52.275423)"><g><path d="M 11.917969 0 L 21.007812 0 L 21.007812 -11.917969 L 32.316406 -33.632812 L 22.707031 -33.632812 L 16.675781 -19.878906 L 16.25 -19.878906 L 9.796875 -33.632812 L 0.375 -33.632812 L 11.917969 -11.917969 Z M 11.917969 0 "/></g></g></g><g fill="#ffffff" fill-opacity="1"><g transform="translate(45.721901, 52.275423)"><g><path d="M 14.648438 0.613281 C 22.894531 0.613281 28.21875 -4.191406 28.21875 -12.105469 C 28.21875 -20.019531 22.847656 -24.824219 14.648438 -24.824219 C 6.359375 -24.824219 1.035156 -20.019531 1.035156 -12.105469 C 1.035156 -4.238281 6.40625 0.613281 14.648438 0.613281 Z M 14.648438 -6.125 C 11.398438 -6.125 9.140625 -8.574219 9.140625 -12.105469 C 9.140625 -15.640625 11.398438 -18.089844 14.648438 -18.089844 C 17.855469 -18.089844 20.113281 -15.640625 20.113281 -12.105469 C 20.113281 -8.574219 17.855469 -6.125 14.648438 -6.125 Z M 14.648438 -6.125 "/></g></g></g><g fill="#ffffff" fill-opacity="1"><g transform="translate(74.973267, 52.275423)"><g><path d="M 10.503906 0.613281 C 13.613281 0.613281 15.875 -0.894531 17.710938 -3.957031 L 18.136719 -3.957031 L 18.136719 0 L 26.238281 0 L 26.238281 -24.214844 L 18.136719 -24.214844 L 18.136719 -10.742188 C 18.136719 -8.054688 16.347656 -6.125 13.992188 -6.125 C 11.589844 -6.125 10.082031 -8.101562 10.082031 -10.835938 L 10.082031 -24.214844 L 1.976562 -24.214844 L 1.976562 -9.234375 C 1.976562 -3.53125 5.464844 0.613281 10.503906 0.613281 Z M 10.503906 0.613281 "/></g></g></g><g fill="#ffffff" fill-opacity="1"><g transform="translate(103.470961, 52.275423)"><g><path d="M 2.261719 0 L 10.363281 0 L 10.363281 -12.199219 C 10.363281 -15.59375 12.246094 -17.855469 15.121094 -17.855469 C 16.347656 -17.855469 17.949219 -17.476562 19.359375 -16.816406 L 19.359375 -24.070312 C 18.511719 -24.496094 17.476562 -24.683594 16.488281 -24.683594 C 13.847656 -24.683594 11.871094 -23.128906 10.789062 -20.445312 L 10.316406 -20.445312 L 10.316406 -24.214844 L 2.261719 -24.214844 Z M 2.261719 0 "/></g></g></g><g fill="#ff4a17" fill-opacity="1"><g transform="translate(123.656379, 52.275423)"><g><path d="M 2.683594 0 L 11.730469 0 L 11.730469 -9.890625 L 17.804688 -9.890625 C 26.804688 -9.890625 32.078125 -14.699219 32.078125 -21.761719 C 32.078125 -28.875 26.851562 -33.632812 17.949219 -33.632812 L 2.683594 -33.632812 Z M 11.730469 -16.347656 L 11.730469 -27.179688 L 16.769531 -27.179688 C 20.679688 -27.179688 22.941406 -24.964844 22.941406 -21.761719 C 22.941406 -18.558594 20.679688 -16.347656 16.769531 -16.347656 Z M 11.730469 -16.347656 "/></g></g></g><g fill="#ffffff" fill-opacity="1"><g transform="translate(156.753832, 52.275423)"><g><path d="M 2.261719 0 L 10.363281 0 L 10.363281 -12.199219 C 10.363281 -15.59375 12.246094 -17.855469 15.121094 -17.855469 C 16.347656 -17.855469 17.949219 -17.476562 19.359375 -16.816406 L 19.359375 -24.070312 C 18.511719 -24.496094 17.476562 -24.683594 16.488281 -24.683594 C 13.847656 -24.683594 11.871094 -23.128906 10.789062 -20.445312 L 10.316406 -20.445312 L 10.316406 -24.214844 L 2.261719 -24.214844 Z M 2.261719 0 "/></g></g></g><g fill="#ffffff" fill-opacity="1"><g transform="translate(176.9613, 52.275423)"><g><path d="M 14.648438 0.613281 C 22.894531 0.613281 28.21875 -4.191406 28.21875 -12.105469 C 28.21875 -20.019531 22.847656 -24.824219 14.648438 -24.824219 C 6.359375 -24.824219 1.035156 -20.019531 1.035156 -12.105469 C 1.035156 -4.238281 6.40625 0.613281 14.648438 0.613281 Z M 14.648438 -6.125 C 11.398438 -6.125 9.140625 -8.574219 9.140625 -12.105469 C 9.140625 -15.640625 11.398438 -18.089844 14.648438 -18.089844 C 17.855469 -18.089844 20.113281 -15.640625 20.113281 -12.105469 C 20.113281 -8.574219 17.855469 -6.125 14.648438 -6.125 Z M 14.648438 -6.125 "/></g></g></g><g fill="#ffffff" fill-opacity="1"><g transform="translate(206.212666, 52.275423)"><g><path d="M 8.902344 11.023438 C 13.753906 11.023438 16.816406 8.054688 19.40625 0.988281 L 28.78125 -24.214844 L 20.492188 -24.214844 L 15.734375 -9.988281 L 15.308594 -9.988281 L 9.1875 -24.214844 L 0.425781 -24.214844 L 12.484375 0.328125 C 11.542969 2.828125 9.941406 4.617188 7.253906 4.617188 C 6.125 4.617188 4.523438 4.332031 3.53125 3.957031 L 3.53125 10.222656 C 4.757812 10.691406 7.207031 11.023438 8.902344 11.023438 Z M 8.902344 11.023438 "/></g></g></g><g fill="#ffffff" fill-opacity="1"><g transform="translate(235.416926, 52.275423)"><g><path d="M 14.699219 0.613281 C 20.867188 0.613281 26.003906 -2.449219 27.179688 -7.113281 L 20.113281 -8.101562 C 19.40625 -6.21875 17.523438 -4.851562 15.121094 -4.851562 C 12.011719 -4.851562 9.890625 -6.878906 9.421875 -9.941406 L 27.933594 -9.941406 C 27.980469 -10.316406 28.027344 -11.445312 28.027344 -12.011719 C 28.027344 -19.832031 22.800781 -24.824219 14.792969 -24.824219 C 6.785156 -24.824219 1.082031 -19.878906 1.082031 -12.152344 C 1.082031 -4.382812 6.640625 0.613281 14.699219 0.613281 Z M 9.328125 -14.132812 C 9.75 -17.289062 11.730469 -19.359375 14.648438 -19.359375 C 17.617188 -19.359375 19.785156 -17.003906 19.925781 -14.132812 Z M 9.328125 -14.132812 "/></g></g></g><g fill="#ffffff" fill-opacity="1"><g transform="translate(264.479867, 52.275423)"><g><path d="M 14.601562 0.613281 C 21.386719 0.613281 26.332031 -2.875 27.179688 -8.808594 L 19.738281 -9.75 C 19.21875 -7.441406 17.101562 -5.839844 14.699219 -5.839844 C 11.492188 -5.839844 9.1875 -8.480469 9.1875 -12.105469 C 9.1875 -15.734375 11.492188 -18.417969 14.699219 -18.417969 C 17.054688 -18.417969 19.21875 -16.722656 19.738281 -14.367188 L 27.179688 -15.308594 C 26.378906 -21.292969 21.386719 -24.824219 14.601562 -24.824219 C 6.5 -24.824219 1.128906 -19.925781 1.082031 -12.105469 C 1.128906 -4.382812 6.640625 0.613281 14.601562 0.613281 Z M 14.601562 0.613281 "/></g></g></g><g fill="#ffffff" fill-opacity="1"><g transform="translate(292.742057, 52.275423)"><g><path d="M 12.105469 0.519531 C 13.613281 0.519531 15.734375 0.234375 17.242188 -0.328125 L 17.242188 -5.886719 C 16.488281 -5.699219 15.5 -5.605469 14.792969 -5.605469 C 13 -5.605469 11.824219 -6.878906 11.824219 -8.855469 L 11.824219 -18.464844 L 17.101562 -18.464844 L 17.101562 -24.214844 L 11.824219 -24.214844 L 11.824219 -31.65625 L 5.417969 -31.65625 L 4.050781 -24.214844 L 0.519531 -24.214844 L 0.519531 -18.464844 L 3.722656 -18.464844 L 3.722656 -8.480469 C 3.722656 -3.109375 7.066406 0.519531 12.105469 0.519531 Z M 12.105469 0.519531 "/></g></g></g><g fill="#ff4a17" fill-opacity="1"><g transform="translate(310.850229, 52.275423)"><g><path d="M 5.652344 0.472656 C 8.339844 0.472656 10.222656 -1.367188 10.222656 -3.957031 C 10.222656 -6.5 8.339844 -8.339844 5.652344 -8.339844 C 3.015625 -8.339844 1.082031 -6.5 1.082031 -3.957031 C 1.082031 -1.367188 3.015625 0.472656 5.652344 0.472656 Z M 5.652344 0.472656 "/></g></g></g><g fill="#ffffff" fill-opacity="1"><g transform="translate(322.153925, 52.275423)"><g><path d="M 8.855469 0.613281 C 12.199219 0.613281 15.355469 -0.660156 16.769531 -3.203125 L 17.195312 -3.203125 L 17.195312 0 L 25.296875 0 L 25.296875 -15.828125 C 25.296875 -21.199219 20.632812 -24.730469 13.707031 -24.730469 C 6.6875 -24.730469 2.074219 -21.199219 2.074219 -15.875 L 9.796875 -15.875 C 9.796875 -18.230469 11.445312 -19.738281 13.613281 -19.738281 C 15.78125 -19.738281 17.195312 -18.230469 17.195312 -16.15625 L 17.195312 -14.933594 L 12.578125 -14.226562 C 4.664062 -13.046875 0.988281 -10.691406 0.988281 -6.078125 C 0.988281 -1.789062 4.238281 0.613281 8.855469 0.613281 Z M 12.152344 -4.191406 C 10.035156 -4.191406 8.761719 -5.277344 8.761719 -6.878906 C 8.761719 -8.527344 9.988281 -9.5625 13 -10.082031 L 17.195312 -10.789062 L 17.195312 -9.140625 C 17.195312 -6.3125 15.167969 -4.191406 12.152344 -4.191406 Z M 12.152344 -4.191406 "/></g></g></g><g fill="#ffffff" fill-opacity="1"><g transform="translate(349.42694, 52.275423)"><g><path d="M 6.40625 -27.085938 C 9.089844 -27.085938 11.023438 -28.921875 11.023438 -31.515625 C 11.023438 -34.105469 9.089844 -35.941406 6.40625 -35.941406 C 3.769531 -35.941406 1.835938 -34.105469 1.835938 -31.515625 C 1.835938 -28.921875 3.769531 -27.085938 6.40625 -27.085938 Z M 2.355469 0 L 10.457031 0 L 10.457031 -24.214844 L 2.355469 -24.214844 Z M 2.355469 0 "/></g></g></g></svg>